inDegrees=no
num_controls=7
num_derivatives=13
num_iterations=110
num_multipliers=7
num_parameters=0
num_slacks=7
num_states=26
objective=5.615351
objective_accelerations=0.735347
objective_balance=0.047466
objective_effort=0.689021
objective_height=4.062886
objective_ligament=0.080632
solver_duration=1094.965821
status=Solve_Succeeded
success=true
DataType=double
version=3
OpenSimVersion=4.4-2022-07-23-0e9fedc
endheader
time	/jointset/ground_pelvis/pelvis_tilt/value	/jointset/ground_pelvis/pelvis_tx/value	/jointset/ground_pelvis/pelvis_ty/value	/jointset/hip_l/hip_flexion_l/value	/jointset/hip_l/hip_adduction_l/value	/jointset/hip_l/hip_rotation_l/value	/jointset/back/lumbar_extension/value	/jointset/patellofemoral_l/patellar_flexion_l/value	/jointset/knee_l/knee_flexion_l/value	/jointset/knee_l/knee_adduction_l/value	/jointset/knee_l/knee_rotation_l/value	/jointset/ankle_l/ankle_angle_l/value	/jointset/subtalar_l/subtalar_angle_l/value	/jointset/ground_pelvis/pelvis_tilt/speed	/jointset/ground_pelvis/pelvis_tx/speed	/jointset/ground_pelvis/pelvis_ty/speed	/jointset/hip_l/hip_flexion_l/speed	/jointset/hip_l/hip_adduction_l/speed	/jointset/hip_l/hip_rotation_l/speed	/jointset/back/lumbar_extension/speed	/jointset/patellofemoral_l/patellar_flexion_l/speed	/jointset/knee_l/knee_flexion_l/speed	/jointset/knee_l/knee_adduction_l/speed	/jointset/knee_l/knee_rotation_l/speed	/jointset/ankle_l/ankle_angle_l/speed	/jointset/subtalar_l/subtalar_angle_l/speed	/forceset/tau_hip_flexion_l	/forceset/tau_hip_adduction_l	/forceset/tau_hip_rotation_l	/forceset/tau_knee_flexion_l	/forceset/tau_ankle_angle_l	/forceset/tau_subtalar_angle_l	/forceset/tau_lumbar_extension	lambda_cid13_p0	lambda_cid13_p1	lambda_cid13_p2	lambda_cid13_p3	lambda_cid13_p4	lambda_cid13_p5	lambda_cid14_p0	/jointset/ground_pelvis/pelvis_tilt/accel	/jointset/ground_pelvis/pelvis_tx/accel	/jointset/ground_pelvis/pelvis_ty/accel	/jointset/hip_l/hip_flexion_l/accel	/jointset/hip_l/hip_adduction_l/accel	/jointset/hip_l/hip_rotation_l/accel	/jointset/back/lumbar_extension/accel	/jointset/patellofemoral_l/patellar_flexion_l/accel	/jointset/knee_l/knee_flexion_l/accel	/jointset/knee_l/knee_adduction_l/accel	/jointset/knee_l/knee_rotation_l/accel	/jointset/ankle_l/ankle_angle_l/accel	/jointset/subtalar_l/subtalar_angle_l/accel	gamma_cid13_p0	gamma_cid13_p1	gamma_cid13_p2	gamma_cid13_p3	gamma_cid13_p4	gamma_cid13_p5	gamma_cid14_p0
1	-0.09892709863833025	-0.06913910763377772	0.4209695745235471	2.090905391676147	-0.2962518190102811	0.1222640274857836	-0.9599220106740508	2.093594018355956	2.093594018355906	0.1745306265465783	-0.1744882034027348	0.2494968383908501	0.0925269904499216	0.02978409735208329	0.003793514131818886	0.05332786115403105	-0.2063627132893137	-0.01564763512411286	-0.0411688605626207	0.0004647653840209694	-0.09812010893316064	-0.09812010893315939	-0.004608083903541655	0.0001354195988244319	0.07538166805147974	0.01554048432800609	-0.3648199878141082	-0.03914144456126757	-0.06237130275940354	-0.4202617071231123	0.1069060735865447	-0.0005494394673402523	0.4205427965361083	-21.06790156739868	13.22859824422939	-13.18744647943453	22.41323316482996	-827.4178285938009	-27.64644476965693	-0.02280161198214114	-0.8098399111535262	-0.5731139735703711	2.138468976290689	-6.184245542872521	-0.3169006068466942	-1.583899031139588	2.925775084527656e-05	-5.90694008527924	-5.906940085279248	-0.8907349747368128	0.02998915878473047	0.7312914170374145	-0.04256491788249225	-2.315221044893428e-08	3.270801128989774e-08	-1.54142893749295e-07	8.955210515136413e-08	8.288424080611124e-09	-1.257440475360172e-07	1.783967216157356e-08
1.01	-0.09866976558815532	-0.06912996655530532	0.4216106972499729	2.088529672531593	-0.2964230275458905	0.1217759638690081	-0.9599174444908417	2.09231509347407	2.092315093474067	0.1744371929580447	-0.174484686996329	0.2502876255467958	0.09268185845524668	0.02169122274346006	-0.001973561598718481	0.07498319198052866	-0.2690210466589571	-0.01858609987570823	-0.05642731092258936	0.0004431295048914312	-0.157891945719847	-0.1578919457198488	-0.01417135124519364	0.0005532275649715084	0.08276689197652322	0.01543912544891511	-0.3665779419587546	-0.03897239200539467	-0.06236305188564284	-0.4227203457781157	0.1068247738987051	-0.00039252974452833	0.4224910330034168	-21.30156445769875	13.22364899121671	-13.21211124711722	22.76203496564287	-830.557441545731	-28.11709843035134	-0.02288557949063925	-0.8077030175219789	-0.5797309569192058	2.19203808214698	-6.342616705676983	-0.2810828496793246	-1.494335931655561	-0.004061281124518801	-6.046371668795135	-6.046371668795533	-1.003010855886929	0.0454343008807749	0.7408016134269721	0.007003052195341515	-1.454537754275621e-08	1.900110063333018e-08	-2.122173060511155e-07	6.470194939624344e-08	-1.591014631781695e-08	-2.003037921105947e-07	2.221830117043261e-08
1.02	-0.09849309964043097	-0.06917874155096283	0.4224709678739259	2.085520172158996	-0.2966233734170912	0.1211358121699881	-0.9599132549204596	2.090431636985631	2.090431636985644	0.1742453490480222	-0.174477440973226	0.2511519976886294	0.09283589775680465	0.01365067686262208	-0.007789700694157685	0.09715744065947914	-0.3331189588952792	-0.02147510224183431	-0.07158647701177732	0.0003894428105097577	-0.2190264302438052	-0.2190264302438097	-0.02429014826715968	0.0008813429451637056	0.0900986652291345	0.01537474357454108	-0.3683358961034442	-0.03880333944951879	-0.06235480101082082	-0.4251789844331448	0.1067434742108755	-0.0002356200217200503	0.4244392694706902	-21.52541238739517	13.21866864617532	-13.23869817335159	23.09091874767303	-833.5597372534073	-28.54797746974887	-0.02301971105507677	-0.7993741655962442	-0.5829266465507753	2.242252546781192	-6.472161316208176	-0.3070081297528693	-1.564042176983746	-0.006380905302004225	-6.179469632733444	-6.179469632733388	-1.001840910799301	0.01205064159382218	0.720601282550822	-0.0351695169391955	-1.893658305056895e-09	-1.406712730004711e-08	-3.173294383088678e-07	4.207453576465658e-08	-4.579269973960981e-08	-4.295397059563301e-07	3.925998152867455e-08
1.03	-0.09839632092144	-0.06928578330038869	0.4235555226376769	2.081862734214089	-0.2968522821897728	0.1203449909513463	-0.9599097061833697	2.08793029328927	2.087930293289246	0.1739493127070953	-0.1744674590448483	0.252089217726486	0.09298948207258532	0.005741142014260941	-0.01361259236082693	0.1198349700533455	-0.3985855558785242	-0.02429327387235093	-0.08656913314776117	0.0003190389895475653	-0.2814421621960917	-0.2814421621961036	-0.03498733406829739	0.001106008079934487	0.09731453217308515	0.01534500824123926	-0.3702001019916278	-0.03857802401452894	-0.06225399256443845	-0.4277471462231631	0.1069098525638495	5.312797578297366e-05	0.4265389860106563	-21.65642857691113	13.13172656401012	-13.24256630510351	23.17972756808712	-836.6072787571545	-29.13235895347041	-0.02318958936946026	-0.7813274710344136	-0.581058145335056	2.292706501865502	-6.616445088765255	-0.2671427396825442	-1.464078797871641	-0.007559970133511442	-6.302614341625604	-6.3026143416267	-1.114142803495413	0.02621668831827934	0.7174518741334029	0.01361663620480994	1.079933528296409e-08	-4.733291969543279e-08	-4.229215473008645e-07	1.946980317514661e-08	-7.573325298817171e-08	-6.603539480599354e-07	5.643087669660414e-08
